<svg width="881" height="453" version="1.1" xmlns="http://www.w3.org/2000/svg" desc="Created with imagetracer.js version 1.2.6" ><path fill="rgb(4,52,128)" stroke="rgb(4,52,128)" stroke-width="1" opacity="0.14901960784313725" d="M 84 4 L 86 4.5 L 85 5.5 L 84.5 24 L 84 4 Z " /><path fill="rgb(4,52,128)" stroke="rgb(4,52,128)" stroke-width="1" opacity="0.14901960784313725" d="M 86.5 14 L 87 22.5 L 86 22.5 L 86.5 14 Z " /><path fill="rgb(4,52,128)" stroke="rgb(4,52,128)" stroke-width="1" opacity="0.14901960784313725" d="M 83.5 26 L 84 47.5 L 83 48.5 L 83 71.5 L 71.5 84 L 71 82 Q 73.7 83.1 73 80.5 L 82 71.5 L 82 48.5 L 83 47.5 L 83.5 26 Z " /><path fill="rgb(4,52,128)" stroke="rgb(4,52,128)" stroke-width="1" opacity="0.14901960784313725" d="M 87.5 35 L 88 43.5 L 87 43.5 L 87.5 35 Z " /><path fill="rgb(4,52,128)" stroke="rgb(4,52,128)" stroke-width="1" opacity="0.14901960784313725" d="M 88.5 55 L 89 70.5 L 88 70.5 L 88.5 55 Z " /><path fill="rgb(4,52,128)" stroke="rgb(4,52,128)" stroke-width="1" opacity="0.14901960784313725" d="M 89.5 72 L 100 82.5 L 100 91.5 L 102.5 94 L 110 100.5 L 104.5 96 L 99 91.5 L 99 83.5 L 90.5 74 Q 87.7 74.7 89.5 72 Z " /><path fill="rgb(4,52,128)" stroke="rgb(4,52,128)" stroke-width="1" opacity="0.14901960784313725" d="M 70.5 92 L 68.5 95 L 51.5 109 L 55.5 104 L 70.5 92 Z " /><path fill="rgb(4,52,128)" stroke="rgb(4,52,128)" stroke-width="1" opacity="0.14901960784313725" d="M 111.5 101 L 115.5 106 L 111.5 101 Z " /><path fill="rgb(4,52,128)" stroke="rgb(4,52,128)" stroke-width="1" opacity="0.14901960784313725" d="M 119.5 108 L 121.5 111 L 119.5 108 Z " /><path fill="rgb(4,52,128)" stroke="rgb(4,52,128)" stroke-width="1" opacity="0.14901960784313725" d="M 49.5 109 L 45.5 114 L 49.5 109 Z " /><path fill="rgb(4,52,128)" stroke="rgb(4,52,128)" stroke-width="1" opacity="0.14901960784313725" d="M 125.5 113 L 127.5 116 L 125.5 113 Z " /><path fill="rgb(4,52,128)" stroke="rgb(4,52,128)" stroke-width="1" opacity="0.14901960784313725" d="M 43.5 114 L 39.5 119 L 24 131.5 Q 22.5 139 27 140.5 L 23 137.5 L 23 130.5 L 24.5 130 L 43.5 114 Z " /><path fill="rgb(4,52,128)" stroke="rgb(4,52,128)" stroke-width="1" opacity="0.14901960784313725" d="M 871.5 117 L 873 117.5 L 871 118 L 871 140.5 L 872 142.5 L 871 145.5 L 872 147.5 L 871 148.5 L 871 176.5 L 872 179.5 L 871 184.5 L 872 188.5 L 871 190.5 L 871 192.5 L 872 195.5 L 871 196.5 L 871 218.5 L 871 222.5 L 872 224.5 L 871 227.5 L 871 229.5 Q 869.8 234.3 872 235.5 L 871 236.5 L 871 249.5 L 872 252.5 L 871 253.5 L 871 266.5 L 871 268.5 L 872 273.5 L 871 274.5 L 871 312.5 L 872 314.5 L 871 319.5 L 871 321.5 L 871 331.5 L 872 332.5 L 871 335.5 L 872 337.5 L 871 338.5 L 871 359.5 L 871 361.5 L 871 388.5 L 872 391 L 183.5 391 L 181.5 392 L 182.5 390 L 870 390 L 870 118.5 L 871.5 117 Z " /><path fill="rgb(4,52,128)" stroke="rgb(4,52,128)" stroke-width="1" opacity="0.14901960784313725" d="M 131.5 118 L 132.5 120 L 131.5 118 Z " /><path fill="rgb(4,52,128)" stroke="rgb(4,52,128)" stroke-width="1" opacity="0.14901960784313725" d="M 135.5 121 L 147 130.5 L 147 137.5 L 141.5 143 L 130.5 148 L 130.5 147 Q 140.1 144.1 146 137.5 L 146 131.5 L 139.5 125 L 135.5 121 Z " /><path fill="rgb(4,52,128)" stroke="rgb(4,52,128)" stroke-width="1" opacity="0.14901960784313725" d="M 28.5 141 L 29.5 143 L 28.5 141 Z " /><path fill="rgb(4,52,128)" stroke="rgb(4,52,128)" stroke-width="1" opacity="0.14901960784313725" d="M 31.5 143 L 41 148.5 L 41 172.5 L 39.5 173 L 40 171.5 L 40 148.5 L 38.5 148 L 32.5 145 L 31.5 143 Z " /><path fill="rgb(4,52,128)" stroke="rgb(4,52,128)" stroke-width="1" opacity="0.14901960784313725" d="M 129.5 149 L 130 165.5 L 129 165.5 L 129.5 149 Z " /><path fill="rgb(4,52,128)" stroke="rgb(4,52,128)" stroke-width="1" opacity="0.14901960784313725" d="M 180 171 L 221 171.5 L 182.5 172 L 181 173.5 L 181 300 L 227.5 300 L 227.5 301 L 180 301 L 180 171 Z " /><path fill="rgb(4,52,128)" stroke="rgb(4,52,128)" stroke-width="1" opacity="0.14901960784313725" d="M 224.5 171 L 230 172.5 L 227.5 173 L 224.5 172 L 224.5 171 Z " /><path fill="rgb(4,52,128)" stroke="rgb(4,52,128)" stroke-width="1" opacity="0.14901960784313725" d="M 486.5 171 L 491 171.5 L 486.5 172 L 486.5 171 Z " /><path fill="rgb(4,52,128)" stroke="rgb(4,52,128)" stroke-width="1" opacity="0.14901960784313725" d="M 493.5 171 L 509 171.5 L 493.5 172 L 493.5 171 Z " /><path fill="rgb(4,52,128)" stroke="rgb(4,52,128)" stroke-width="1" opacity="0.14901960784313725" d="M 510.5 171 L 513 171.5 L 510.5 172 L 510.5 171 Z " /><path fill="rgb(4,52,128)" stroke="rgb(4,52,128)" stroke-width="1" opacity="0.14901960784313725" d="M 517.5 171 L 534 171.5 L 517.5 172 L 517.5 171 Z " /><path fill="rgb(4,52,128)" stroke="rgb(4,52,128)" stroke-width="1" opacity="0.14901960784313725" d="M 535.5 171 L 546 171.5 L 535.5 172 L 535.5 171 Z " /><path fill="rgb(4,52,128)" stroke="rgb(4,52,128)" stroke-width="1" opacity="0.14901960784313725" d="M 548.5 171 L 553 171.5 L 548.5 172 L 548.5 171 Z " /><path fill="rgb(4,52,128)" stroke="rgb(4,52,128)" stroke-width="1" opacity="0.14901960784313725" d="M 557.5 171 L 559 172.5 L 559 188 L 549 187.5 L 558 187 L 558 172.5 L 557.5 171 Z " /><path fill="rgb(4,52,128)" stroke="rgb(4,52,128)" stroke-width="1" opacity="0.14901960784313725" d="M 231.5 172 L 237.5 174 L 239.5 174 L 252.5 179 L 270 193.5 L 271 195.5 L 269.5 196 L 259.5 185 L 257 185 L 257 183 L 254 183 Q 255.1 180.3 252.5 181 L 247.5 178 L 246 178.5 L 245.5 177 L 244 177.5 L 243.5 176 L 241.5 176 Q 238.2 177.1 239 174.5 L 237.5 175 L 232.5 174 L 231.5 172 Z " /><path fill="rgb(4,52,128)" stroke="rgb(4,52,128)" stroke-width="1" opacity="0.14901960784313725" d="M 33.5 173 L 37 173.5 Q 28.6 174.1 24 178.5 L 20 193 L 27 196.5 L 25.5 196 L 19 192.5 Q 20.3 182.8 24.5 176 L 33.5 173 Z " /><path fill="rgb(4,52,128)" stroke="rgb(4,52,128)" stroke-width="1" opacity="0.14901960784313725" d="M 136.5 173 L 143 175.5 L 141.5 176 L 136.5 174 L 136.5 173 Z " /><path fill="rgb(4,52,128)" stroke="rgb(4,52,128)" stroke-width="1" opacity="0.14901960784313725" d="M 482.5 173 L 483 300 L 498.5 300 L 499 299.5 L 499 243.5 L 500 243.5 L 500 300.5 L 499.5 301 L 483.5 301 L 482 299.5 L 482.5 173 Z " /><path fill="rgb(4,52,128)" stroke="rgb(4,52,128)" stroke-width="1" opacity="0.14901960784313725" d="M 144.5 181 L 145 183.5 L 144 183.5 L 144.5 181 Z " /><path fill="rgb(4,52,128)" stroke="rgb(4,52,128)" stroke-width="1" opacity="0.14901960784313725" d="M 139.5 187 L 142 187.5 L 139.5 188 L 139.5 187 Z " /><path fill="rgb(4,52,128)" stroke="rgb(4,52,128)" stroke-width="1" opacity="0.14901960784313725" d="M 500.5 187 L 526 187.5 L 500 188 L 500 227 L 549.5 227 L 550 229.5 L 548.5 229 L 501.5 229 L 500.5 228 L 499 228.5 L 499 188.5 L 500.5 187 Z " /><path fill="rgb(4,52,128)" stroke="rgb(4,52,128)" stroke-width="1" opacity="0.14901960784313725" d="M 527.5 187 L 548 187.5 L 527.5 188 L 527.5 187 Z " /><path fill="rgb(4,52,128)" stroke="rgb(4,52,128)" stroke-width="1" opacity="0.14901960784313725" d="M 131.5 188 L 134 188.5 L 131.5 189 L 131.5 188 Z " /><path fill="rgb(4,52,128)" stroke="rgb(4,52,128)" stroke-width="1" opacity="0.14901960784313725" d="M 233.5 188 L 234.5 190 L 233.5 188 Z " /><path fill="rgb(4,52,128)" stroke="rgb(4,52,128)" stroke-width="1" opacity="0.14901960784313725" d="M 125.5 189 L 128 189.5 L 125.5 190 L 125.5 189 Z " /><path fill="rgb(4,52,128)" stroke="rgb(4,52,128)" stroke-width="1" opacity="0.14901960784313725" d="M 236.5 189 L 245 193 L 244.5 195 L 237.5 191 L 236.5 189 Z " /><path fill="rgb(4,52,128)" stroke="rgb(4,52,128)" stroke-width="1" opacity="0.14901960784313725" d="M 120.5 190 L 123 190.5 L 120.5 191 L 120.5 190 Z " /><path fill="rgb(4,52,128)" stroke="rgb(4,52,128)" stroke-width="1" opacity="0.14901960784313725" d="M 116.5 191 L 119 191.5 L 116.5 192 L 116.5 191 Z " /><path fill="rgb(4,52,128)" stroke="rgb(4,52,128)" stroke-width="1" opacity="0.14901960784313725" d="M 112.5 192 L 115 192.5 L 109.5 194 L 109.5 193 L 112.5 192 Z " /><path fill="rgb(4,52,128)" stroke="rgb(4,52,128)" stroke-width="1" opacity="0.14901960784313725" d="M 246.5 195 Q 248.8 194.3 248 196.5 L 246.5 195 Z " /><path fill="rgb(4,52,128)" stroke="rgb(4,52,128)" stroke-width="1" opacity="0.14901960784313725" d="M 100.5 196 L 103 196.5 L 82.5 205 Q 65.4 214.4 51.5 227 L 55.5 222 Q 74.9 205.9 100.5 196 Z " /><path fill="rgb(4,52,128)" stroke="rgb(4,52,128)" stroke-width="1" opacity="0.14901960784313725" d="M 28.5 197 L 39 207.5 L 39 209.5 L 36.5 219 L 36 215.5 L 38 208.5 L 28.5 197 Z " /><path fill="rgb(4,52,128)" stroke="rgb(4,52,128)" stroke-width="1" opacity="0.14901960784313725" d="M 249.5 197 L 253 199 L 256 205 L 258 205 L 258 208 Q 261 206.8 260 210.5 L 261 212.5 L 260 212.5 L 249.5 197 Z " /><path fill="rgb(4,52,128)" stroke="rgb(4,52,128)" stroke-width="1" opacity="0.14901960784313725" d="M 271.5 197 L 274 198.5 L 276 201.5 L 274 202.5 L 274 200 Q 271.3 201.1 272 198.5 L 271.5 197 Z " /><path fill="rgb(4,52,128)" stroke="rgb(4,52,128)" stroke-width="1" opacity="0.14901960784313725" d="M 782.5 198 L 792 198.5 L 782.5 199 L 782.5 198 Z " /><path fill="rgb(4,52,128)" stroke="rgb(4,52,128)" stroke-width="1" opacity="0.14901960784313725" d="M 775.5 199 L 780 199.5 L 772.5 201 L 772.5 200 L 775.5 199 Z " /><path fill="rgb(4,52,128)" stroke="rgb(4,52,128)" stroke-width="1" opacity="0.14901960784313725" d="M 795.5 199 L 799 199.5 L 795.5 200 L 795.5 199 Z " /><path fill="rgb(4,52,128)" stroke="rgb(4,52,128)" stroke-width="1" opacity="0.14901960784313725" d="M 301 200 L 360.5 200 L 361 200.5 L 361 216 L 317 215.5 L 360 215 L 360 201.5 L 359.5 201 L 303.5 201 L 302 202.5 L 302 300 L 359.5 300 L 360 299.5 L 360 286 L 317 285.5 L 361 285 L 361 300.5 L 360.5 301 L 301 301 L 301 200 Z " /><path fill="rgb(4,52,128)" stroke="rgb(4,52,128)" stroke-width="1" opacity="0.14901960784313725" d="M 381.5 200 L 381 201.5 L 381 300 L 433.5 300 L 435 298.5 L 435 286 L 395 286 L 395 201.5 L 394.5 201 L 383.5 201 L 383.5 200 L 395.5 200 L 396 200.5 L 396 285 L 436 285 L 436 301 L 381.5 301 L 380 299.5 L 380 201.5 L 381.5 200 Z " /><path fill="rgb(4,52,128)" stroke="rgb(4,52,128)" stroke-width="1" opacity="0.14901960784313725" d="M 589.5 200 L 602.5 200 L 604 201.5 L 608 211.5 L 606 212 L 603 201 L 589.5 201 L 589 203.5 L 588 207 L 586 206.5 L 589.5 200 Z " /><path fill="rgb(4,52,128)" stroke="rgb(4,52,128)" stroke-width="1" opacity="0.14901960784313725" d="M 654 200 L 695 200.5 L 655 201 L 655 298.5 L 656.5 300 L 670 300 L 670 259 L 684 259 L 684 261 Q 686.7 259.9 686 262.5 L 703 285.5 L 701.5 286 L 682.5 260 L 671.5 260 L 671 260.5 L 671 301 L 654 301 L 654 200 Z " /><path fill="rgb(4,52,128)" stroke="rgb(4,52,128)" stroke-width="1" opacity="0.14901960784313725" d="M 800.5 200 Q 819.3 204.7 829 218.5 L 835 227.5 L 838 239.5 L 837 239.5 L 835 230.5 Q 829.8 219.8 821.5 212 Q 813.3 204.2 800.5 201 L 800.5 200 Z " /><path fill="rgb(4,52,128)" stroke="rgb(4,52,128)" stroke-width="1" opacity="0.14901960784313725" d="M 696.5 201 Q 710 203 716 212.5 L 720 221.5 L 718 220.5 L 716 214.5 L 707.5 206 L 696.5 202 L 696.5 201 Z " /><path fill="rgb(4,52,128)" stroke="rgb(4,52,128)" stroke-width="1" opacity="0.14901960784313725" d="M 769.5 201 L 771 201.5 Q 756.9 206.9 748 217.5 L 742.5 226 L 742 224.5 L 752.5 211 L 769.5 201 Z " /><path fill="rgb(4,52,128)" stroke="rgb(4,52,128)" stroke-width="1" opacity="0.14901960784313725" d="M 276.5 203 L 280 209.5 L 279.5 211 Q 282.1 210.2 281 213.5 L 282 215.5 L 281.5 217 Q 284.9 216.1 283 221.5 L 281 220.5 L 280 215.5 L 280.5 214 Q 277.9 214.8 279 211.5 L 278 208.5 L 276.5 203 Z " /><path fill="rgb(4,52,128)" stroke="rgb(4,52,128)" stroke-width="1" opacity="0.14901960784313725" d="M 124.5 204 L 127 204.5 L 121.5 206 L 121.5 205 L 124.5 204 Z " /><path fill="rgb(4,52,128)" stroke="rgb(4,52,128)" stroke-width="1" opacity="0.14901960784313725" d="M 128.5 207 L 129 209.5 L 128 209.5 L 128.5 207 Z " /><path fill="rgb(4,52,128)" stroke="rgb(4,52,128)" stroke-width="1" opacity="0.14901960784313725" d="M 586.5 208 L 586 209.5 L 584.5 212 L 585 210.5 L 586.5 208 Z " /><path fill="rgb(4,52,128)" stroke="rgb(4,52,128)" stroke-width="1" opacity="0.14901960784313725" d="M 110.5 209 L 112 209.5 L 108.5 211 L 108.5 210 L 110.5 209 Z " /><path fill="rgb(4,52,128)" stroke="rgb(4,52,128)" stroke-width="1" opacity="0.14901960784313725" d="M 584.5 213 L 584 214.5 L 582 222 L 580 221.5 L 584.5 213 Z " /><path fill="rgb(4,52,128)" stroke="rgb(4,52,128)" stroke-width="1" opacity="0.14901960784313725" d="M 607.5 213 L 610 216.5 L 608 217 L 607.5 213 Z " /><path fill="rgb(4,52,128)" stroke="rgb(4,52,128)" stroke-width="1" opacity="0.14901960784313725" d="M 780.5 213 Q 792.9 211.6 800.5 215 Q 809.4 218.6 815 225.5 L 821 236.5 L 823 251.5 L 822 251.5 L 820 236.5 L 811.5 223 L 797.5 215 Q 790.8 212.7 780.5 214 Q 766.3 217.8 758.5 228 L 766.5 219 L 780.5 213 Z " /><path fill="rgb(4,52,128)" stroke="rgb(4,52,128)" stroke-width="1" opacity="0.14901960784313725" d="M 129.5 214 L 130 216.5 L 129 216.5 L 129.5 214 Z " /><path fill="rgb(4,52,128)" stroke="rgb(4,52,128)" stroke-width="1" opacity="0.14901960784313725" d="M 671.5 214 L 692.5 214 Q 699.3 216.3 703 221.5 L 698.5 218 L 691.5 215 L 671.5 215 L 671.5 214 Z " /><path fill="rgb(4,52,128)" stroke="rgb(4,52,128)" stroke-width="1" opacity="0.14901960784313725" d="M 94.5 217 L 96 217.5 L 92.5 219 L 92.5 218 L 94.5 217 Z " /><path fill="rgb(4,52,128)" stroke="rgb(4,52,128)" stroke-width="1" opacity="0.14901960784313725" d="M 609.5 218 L 612 221.5 L 610 222 L 609.5 218 Z " /><path fill="rgb(4,52,128)" stroke="rgb(4,52,128)" stroke-width="1" opacity="0.14901960784313725" d="M 90.5 219 L 89.5 221 L 90.5 219 Z " /><path fill="rgb(4,52,128)" stroke="rgb(4,52,128)" stroke-width="1" opacity="0.14901960784313725" d="M 595.5 219 L 597 222.5 L 595 223 L 582 262 L 610 261.5 L 605 250.5 L 598 228.5 L 599 228.5 L 611 263 L 581.5 263 L 581 260.5 L 595.5 219 Z " /><path fill="rgb(4,52,128)" stroke="rgb(4,52,128)" stroke-width="1" opacity="0.14901960784313725" d="M 35.5 220 L 36 223.5 L 34.5 228 L 34 224.5 L 35.5 220 Z " /><path fill="rgb(4,52,128)" stroke="rgb(4,52,128)" stroke-width="1" opacity="0.14901960784313725" d="M 264.5 221 L 265 223.5 L 264 223.5 L 264.5 221 Z " /><path fill="rgb(4,52,128)" stroke="rgb(4,52,128)" stroke-width="1" opacity="0.14901960784313725" d="M 85.5 222 L 84.5 224 L 85.5 222 Z " /><path fill="rgb(4,52,128)" stroke="rgb(4,52,128)" stroke-width="1" opacity="0.14901960784313725" d="M 282.5 223 L 284 227.5 L 283 227.5 L 282.5 223 Z " /><path fill="rgb(4,52,128)" stroke="rgb(4,52,128)" stroke-width="1" opacity="0.14901960784313725" d="M 580.5 223 L 580 224.5 L 551 298.5 L 552.5 300 L 565.5 300 L 568 296.5 L 576.5 274 L 577.5 275 L 614.5 275 L 616 274.5 L 625 300 L 640.5 300 L 641 298.5 L 620 244.5 L 621 244.5 L 642 297.5 L 642 301 L 625.5 301 L 624 299.5 L 617 279.5 L 614.5 276 L 576.5 276 L 576 278.5 L 566.5 301 L 549.5 301 L 549 298.5 L 559 276.5 L 577 228.5 L 580.5 223 Z " /><path fill="rgb(4,52,128)" stroke="rgb(4,52,128)" stroke-width="1" opacity="0.14901960784313725" d="M 611.5 223 L 615 230 Q 612 231.3 613 227.5 L 611.5 223 Z " /><path fill="rgb(4,52,128)" stroke="rgb(4,52,128)" stroke-width="1" opacity="0.14901960784313725" d="M 703.5 223 Q 706.2 226.8 705 234.5 L 702.5 239 L 703 237.5 L 704 226.5 L 703.5 223 Z " /><path fill="rgb(4,52,128)" stroke="rgb(4,52,128)" stroke-width="1" opacity="0.14901960784313725" d="M 82.5 224 L 81.5 226 Q 63.5 237 50 252.5 L 46 259 L 43 260.5 Q 33 272.5 26 287.5 L 20 308.5 Q 22.3 309.7 19.5 311 L 19 306.5 L 22 294.5 L 30 277.5 Q 44 255 63.5 238 L 82.5 224 Z " /><path fill="rgb(4,52,128)" stroke="rgb(4,52,128)" stroke-width="1" opacity="0.14901960784313725" d="M 720.5 225 L 721 235.5 Q 718.4 247.4 709.5 253 L 700.5 257 L 700.5 256 Q 709 253.5 714 247.5 L 720 235.5 L 720.5 225 Z " /><path fill="rgb(4,52,128)" stroke="rgb(4,52,128)" stroke-width="1" opacity="0.14901960784313725" d="M 49.5 227 L 39.5 238 L 38 237.5 L 49.5 227 Z " /><path fill="rgb(4,52,128)" stroke="rgb(4,52,128)" stroke-width="1" opacity="0.14901960784313725" d="M 131.5 227 L 132 229.5 L 131 229.5 L 131.5 227 Z " /><path fill="rgb(4,52,128)" stroke="rgb(4,52,128)" stroke-width="1" opacity="0.14901960784313725" d="M 670.5 228 L 671 231.5 L 670 231.5 L 670.5 228 Z " /><path fill="rgb(4,52,128)" stroke="rgb(4,52,128)" stroke-width="1" opacity="0.14901960784313725" d="M 33.5 229 L 34 232.5 L 32 238.5 L 32 243.5 L 38 239.5 L 30 246 L 33.5 229 Z " /><path fill="rgb(4,52,128)" stroke="rgb(4,52,128)" stroke-width="1" opacity="0.14901960784313725" d="M 739 229 L 741 229.5 L 737 239.5 L 736.5 245 L 736 239.5 L 739 229 Z " /><path fill="rgb(4,52,128)" stroke="rgb(4,52,128)" stroke-width="1" opacity="0.14901960784313725" d="M 266.5 231 L 267 240.5 L 266 240.5 L 266.5 231 Z " /><path fill="rgb(4,52,128)" stroke="rgb(4,52,128)" stroke-width="1" opacity="0.14901960784313725" d="M 283.5 231 L 284 241.5 L 283 241.5 L 283.5 231 Z " /><path fill="rgb(4,52,128)" stroke="rgb(4,52,128)" stroke-width="1" opacity="0.14901960784313725" d="M 614.5 231 Q 617.1 230.2 616 233.5 L 616.5 235 Q 613.9 235.8 615 232.5 L 614.5 231 Z " /><path fill="rgb(4,52,128)" stroke="rgb(4,52,128)" stroke-width="1" opacity="0.14901960784313725" d="M 755 232 L 757 232.5 L 755.5 235 L 755 232 Z " /><path fill="rgb(4,52,128)" stroke="rgb(4,52,128)" stroke-width="1" opacity="0.14901960784313725" d="M 549.5 233 L 550 244 L 501 243.5 L 549 243 L 549.5 233 Z " /><path fill="rgb(4,52,128)" stroke="rgb(4,52,128)" stroke-width="1" opacity="0.14901960784313725" d="M 132.5 234 L 133 236.5 L 132 236.5 L 132.5 234 Z " /><path fill="rgb(4,52,128)" stroke="rgb(4,52,128)" stroke-width="1" opacity="0.14901960784313725" d="M 670.5 234 L 671 240.5 L 670 240.5 L 670.5 234 Z " /><path fill="rgb(4,52,128)" stroke="rgb(4,52,128)" stroke-width="1" opacity="0.14901960784313725" d="M 617.5 236 L 620 242.5 L 618 241.5 L 617.5 236 Z " /><path fill="rgb(4,52,128)" stroke="rgb(4,52,128)" stroke-width="1" opacity="0.14901960784313725" d="M 754.5 236 L 755 237.5 L 753 242.5 L 753 257.5 L 756 266.5 L 754 265.5 Q 750.1 256.4 752 241.5 L 754.5 236 Z " /><path fill="rgb(4,52,128)" stroke="rgb(4,52,128)" stroke-width="1" opacity="0.14901960784313725" d="M 701.5 240 L 699.5 243 L 693.5 246 L 688.5 246 L 688.5 245 L 693.5 245 L 701.5 240 Z " /><path fill="rgb(4,52,128)" stroke="rgb(4,52,128)" stroke-width="1" opacity="0.14901960784313725" d="M 838.5 241 L 839 258.5 L 838 258.5 L 838.5 241 Z " /><path fill="rgb(4,52,128)" stroke="rgb(4,52,128)" stroke-width="1" opacity="0.14901960784313725" d="M 265.5 242 L 266 244.5 L 265 244.5 L 265.5 242 Z " /><path fill="rgb(4,52,128)" stroke="rgb(4,52,128)" stroke-width="1" opacity="0.14901960784313725" d="M 317.5 242 L 353 242 L 353 257 L 317 256.5 L 352 256 L 352 243 L 317.5 243 L 317.5 242 Z " /><path fill="rgb(4,52,128)" stroke="rgb(4,52,128)" stroke-width="1" opacity="0.14901960784313725" d="M 670.5 242 L 671 246 L 687 246.5 L 670 247 L 670.5 242 Z " /><path fill="rgb(4,52,128)" stroke="rgb(4,52,128)" stroke-width="1" opacity="0.14901960784313725" d="M 283.5 245 L 284 247.5 L 282.5 250 L 282 247.5 L 283.5 245 Z " /><path fill="rgb(4,52,128)" stroke="rgb(4,52,128)" stroke-width="1" opacity="0.14901960784313725" d="M 265.5 246 L 266 247.5 L 264.5 250 L 264 248.5 L 265.5 246 Z " /><path fill="rgb(4,52,128)" stroke="rgb(4,52,128)" stroke-width="1" opacity="0.14901960784313725" d="M 264.5 251 L 263.5 253 L 264.5 251 Z " /><path fill="rgb(4,52,128)" stroke="rgb(4,52,128)" stroke-width="1" opacity="0.14901960784313725" d="M 282.5 251 L 283 254.5 Q 279.5 256 282 257.5 Q 276.9 275.4 263.5 285 Q 250.9 296.9 229.5 300 L 229.5 299 Q 258.9 293.9 273 273.5 L 280 260.5 L 280 258.5 L 282 254.5 L 281 252.5 L 282.5 251 Z " /><path fill="rgb(4,52,128)" stroke="rgb(4,52,128)" stroke-width="1" opacity="0.14901960784313725" d="M 134.5 253 L 132.5 256 L 85.5 280 L 85.5 279 L 134.5 253 Z " /><path fill="rgb(4,52,128)" stroke="rgb(4,52,128)" stroke-width="1" opacity="0.14901960784313725" d="M 821.5 253 L 822 260.5 Q 818.1 274.6 807.5 282 L 796.5 287 L 783.5 288 L 774.5 286 L 764 279.5 L 765.5 279 L 768.5 282 L 778.5 286 L 790.5 287 L 799.5 285 L 805.5 282 L 814 274.5 Q 821.1 267.1 821.5 253 Z " /><path fill="rgb(4,52,128)" stroke="rgb(4,52,128)" stroke-width="1" opacity="0.14901960784313725" d="M 263.5 254 L 262.5 256 L 263.5 254 Z " /><path fill="rgb(4,52,128)" stroke="rgb(4,52,128)" stroke-width="1" opacity="0.14901960784313725" d="M 736.5 256 L 737 260.5 L 736 260.5 L 736.5 256 Z " /><path fill="rgb(4,52,128)" stroke="rgb(4,52,128)" stroke-width="1" opacity="0.14901960784313725" d="M 699.5 258 L 702 258.5 Q 699.5 260 703 261.5 L 702.5 263 L 699.5 258 Z " /><path fill="rgb(4,52,128)" stroke="rgb(4,52,128)" stroke-width="1" opacity="0.14901960784313725" d="M 837.5 260 L 838 263.5 L 832 278.5 L 821.5 290 Q 812.9 298.9 797.5 301 L 797.5 300 Q 817.6 295.6 828 281.5 L 834 272.5 L 837.5 260 Z " /><path fill="rgb(4,52,128)" stroke="rgb(4,52,128)" stroke-width="1" opacity="0.14901960784313725" d="M 259.5 262 L 259 263.5 L 256.5 267 L 258 264.5 L 259.5 262 Z " /><path fill="rgb(4,52,128)" stroke="rgb(4,52,128)" stroke-width="1" opacity="0.14901960784313725" d="M 737.5 263 L 739 265.5 L 737 266 L 737.5 263 Z " /><path fill="rgb(4,52,128)" stroke="rgb(4,52,128)" stroke-width="1" opacity="0.14901960784313725" d="M 703.5 264 L 706 265.5 L 708 269.5 L 706 268.5 L 703.5 264 Z " /><path fill="rgb(4,52,128)" stroke="rgb(4,52,128)" stroke-width="1" opacity="0.14901960784313725" d="M 738.5 267 L 739.5 269 Q 736.7 269.7 738.5 267 Z " /><path fill="rgb(4,52,128)" stroke="rgb(4,52,128)" stroke-width="1" opacity="0.14901960784313725" d="M 255.5 268 L 248.5 276 L 255.5 268 Z " /><path fill="rgb(4,52,128)" stroke="rgb(4,52,128)" stroke-width="1" opacity="0.14901960784313725" d="M 739 270 Q 741.7 268.9 741 271.5 Q 746.3 283.8 756.5 291 L 770.5 299 L 777 300.5 L 773.5 301 Q 756 295.5 746 282.5 Q 740.8 277.5 739 270 Z " /><path fill="rgb(4,52,128)" stroke="rgb(4,52,128)" stroke-width="1" opacity="0.14901960784313725" d="M 708.5 271 Q 710.8 270.3 710 272.5 L 711 275 L 713 275 Q 711.5 278.8 714.5 278 L 730 301 L 712.5 301 L 710 300 Q 708.9 297.3 711.5 298 L 713.5 300 L 727.5 300 L 726 297.5 L 726 295 Q 723.3 296.1 724 293.5 L 708.5 271 Z " /><path fill="rgb(4,52,128)" stroke="rgb(4,52,128)" stroke-width="1" opacity="0.14901960784313725" d="M 136.5 272 Q 139.9 271.1 138 276.5 L 137 276.5 Q 138.1 273.2 135.5 274 L 108.5 287 L 105.5 290 L 102 290 L 102 292 L 99 292 Q 100.1 294.7 97.5 294 L 89.5 300 L 87 300 Q 88.1 302.7 85.5 302 Q 64.5 318 47 337.5 L 39.5 347 Q 37.3 346.3 38 348.5 L 37 351 Q 34.3 349.9 35 352.5 L 34 355 L 32 355 L 32 358 Q 29 356.8 30 360.5 L 27 366 Q 24 364.8 25 368.5 Q 14.3 385.8 10.5 410 L 10 404.5 Q 12.8 388.3 20 376.5 L 19.5 375 L 21 374.5 L 20.5 373 L 22 372.5 L 22 370.5 Q 38.7 339.7 64.5 318 Q 94.4 288.9 136.5 272 Z " /><path fill="rgb(4,52,128)" stroke="rgb(4,52,128)" stroke-width="1" opacity="0.14901960784313725" d="M 246.5 276 L 245.5 278 L 246.5 276 Z " /><path fill="rgb(4,52,128)" stroke="rgb(4,52,128)" stroke-width="1" opacity="0.14901960784313725" d="M 761.5 277 L 762.5 279 L 761.5 277 Z " /><path fill="rgb(4,52,128)" stroke="rgb(4,52,128)" stroke-width="1" opacity="0.14901960784313725" d="M 138.5 278 L 139 282.5 L 138 282.5 L 138.5 278 Z " /><path fill="rgb(4,52,128)" stroke="rgb(4,52,128)" stroke-width="1" opacity="0.14901960784313725" d="M 240.5 279 L 242 279.5 L 226.5 285 L 199.5 285 L 199.5 284 L 225.5 284 L 234.5 282 L 240.5 279 Z " /><path fill="rgb(4,52,128)" stroke="rgb(4,52,128)" stroke-width="1" opacity="0.14901960784313725" d="M 139.5 284 L 143 306.5 L 142 306.5 L 139 289.5 L 139.5 284 Z " /><path fill="rgb(4,52,128)" stroke="rgb(4,52,128)" stroke-width="1" opacity="0.14901960784313725" d="M 76.5 285 L 75.5 287 L 76.5 285 Z " /><path fill="rgb(4,52,128)" stroke="rgb(4,52,128)" stroke-width="1" opacity="0.14901960784313725" d="M 703.5 287 L 708 292.5 L 706.5 293 L 703 288.5 L 703.5 287 Z " /><path fill="rgb(4,52,128)" stroke="rgb(4,52,128)" stroke-width="1" opacity="0.14901960784313725" d="M 70.5 289 L 67.5 293 L 70.5 289 Z " /><path fill="rgb(4,52,128)" stroke="rgb(4,52,128)" stroke-width="1" opacity="0.14901960784313725" d="M 708.5 294 L 710.5 297 L 707 295.5 L 708.5 294 Z " /><path fill="rgb(4,52,128)" stroke="rgb(4,52,128)" stroke-width="1" opacity="0.14901960784313725" d="M 63.5 295 L 62.5 297 L 63.5 295 Z " /><path fill="rgb(4,52,128)" stroke="rgb(4,52,128)" stroke-width="1" opacity="0.14901960784313725" d="M 58.5 299 L 52.5 306 L 40 317.5 L 28.5 332 L 28 330.5 L 30 327 L 33 325.5 L 36.5 320 Q 38.8 320.8 38 318.5 L 44 311 L 53 305 L 54.5 302 L 58.5 299 Z " /><path fill="rgb(4,52,128)" stroke="rgb(4,52,128)" stroke-width="1" opacity="0.14901960784313725" d="M 779.5 301 L 796 301.5 L 779.5 302 L 779.5 301 Z " /><path fill="rgb(4,52,128)" stroke="rgb(4,52,128)" stroke-width="1" opacity="0.14901960784313725" d="M 143.5 309 L 144 313.5 L 143 313.5 L 143.5 309 Z " /><path fill="rgb(4,52,128)" stroke="rgb(4,52,128)" stroke-width="1" opacity="0.14901960784313725" d="M 19.5 314 L 19 315.5 L 18.5 317 L 18 315.5 L 19.5 314 Z " /><path fill="rgb(4,52,128)" stroke="rgb(4,52,128)" stroke-width="1" opacity="0.14901960784313725" d="M 144.5 315 L 145 319.5 L 144 319.5 L 144.5 315 Z " /><path fill="rgb(4,52,128)" stroke="rgb(4,52,128)" stroke-width="1" opacity="0.14901960784313725" d="M 145.5 321 L 147 330.5 L 146 330.5 L 145.5 321 Z " /><path fill="rgb(4,52,128)" stroke="rgb(4,52,128)" stroke-width="1" opacity="0.14901960784313725" d="M 16.5 329 L 17 331.5 L 16 331.5 L 16.5 329 Z " /><path fill="rgb(4,52,128)" stroke="rgb(4,52,128)" stroke-width="1" opacity="0.14901960784313725" d="M 147.5 333 L 148 337 L 146 336.5 L 147.5 333 Z " /><path fill="rgb(4,52,128)" stroke="rgb(4,52,128)" stroke-width="1" opacity="0.14901960784313725" d="M 144.5 337 L 143.5 339 L 139.5 341 L 139 339 L 144.5 337 Z " /><path fill="rgb(4,52,128)" stroke="rgb(4,52,128)" stroke-width="1" opacity="0.14901960784313725" d="M 245.5 338 L 248 339.5 Q 241.5 339 239 342.5 L 238 347.5 L 239 350 L 248.5 354 L 251 356.5 Q 251.8 361.3 248.5 362 Q 242.2 362.8 239.5 360 L 238.5 362 L 244 364.5 L 241.5 365 L 237 361.5 L 238 358 Q 242.2 357.2 243.5 361 L 248.5 361 Q 250.8 360.3 250 356.5 L 240.5 352 L 237 348.5 Q 236.1 340.6 241.5 339 L 245.5 338 Z " /><path fill="rgb(4,52,128)" stroke="rgb(4,52,128)" stroke-width="1" opacity="0.14901960784313725" d="M 343.5 338 L 351.5 341 L 354 343.5 Q 356.6 344.9 356 349.5 L 355 349.5 L 354 345 L 352 345 L 352 343 L 350 343 Q 351.1 340.3 348.5 341 L 347.5 340 L 339.5 340 L 334 344.5 Q 330.8 347.8 332 355.5 L 332.5 357 L 331 356.5 L 331 347.5 L 335.5 341 L 343.5 338 Z " /><path fill="rgb(4,52,128)" stroke="rgb(4,52,128)" stroke-width="1" opacity="0.14901960784313725" d="M 580.5 338 L 588 341 Q 589.5 344.8 586.5 344 L 584.5 345 Q 583.5 342 578.5 343 L 576 344.5 Q 575.3 342.3 577.5 343 L 582.5 342 L 585.5 344 L 586 341 Q 582.9 339 576 340 L 573 344.5 L 573 348.5 L 575.5 351 L 585 355 L 586 358.5 L 585 361 Q 582.9 362.6 577.5 362 Q 576.4 359.3 573 360 L 574.5 363 L 578 364.5 L 575.5 365 L 571 361.5 L 573.5 358 Q 575.8 361.7 582.5 361 L 585 357.5 L 582.5 355 L 573 351 Q 571.4 348.9 572 343.5 L 574.5 340 L 580.5 338 Z " /><path fill="rgb(4,52,128)" stroke="rgb(4,52,128)" stroke-width="1" opacity="0.14901960784313725" d="M 646.5 338 Q 654 338.5 657 343.5 L 655.5 347 L 649.5 343 L 644.5 343 L 641 345.5 Q 637.6 348.1 639 355.5 L 640 357.5 L 639 357.5 L 638 348.5 L 641.5 343 L 650.5 342 L 656 345 L 654.5 342 Q 651.6 338.4 643.5 340 L 638 344.5 Q 638.7 347.1 636 346 L 636 348.5 Q 633.5 350 635 355.5 L 636 357.5 L 635 357.5 L 634 349.5 Q 635.5 343 640.5 340 L 646.5 338 Z " /><path fill="rgb(4,52,128)" stroke="rgb(4,52,128)" stroke-width="1" opacity="0.14901960784313725" d="M 756.5 338 Q 764.3 338.7 768 343.5 L 770 349.5 L 769 349.5 L 769 347.5 L 763.5 341 Q 760.3 338.7 753.5 340 L 749 342 L 749 344.5 L 745.5 350 L 745 347.5 L 746 345 L 748 344.5 L 747 343.5 L 750.5 340 L 756.5 338 Z " /><path fill="rgb(4,52,128)" stroke="rgb(4,52,128)" stroke-width="1" opacity="0.14901960784313725" d="M 15.5 339 L 16 345 L 18 345.5 L 15 346 L 15.5 339 Z " /><path fill="rgb(4,52,128)" stroke="rgb(4,52,128)" stroke-width="1" opacity="0.14901960784313725" d="M 210.5 339 Q 215 338 216 340.5 L 225 365 Q 220.4 366.3 219 363.5 L 218 359 L 216 358.5 L 217.5 358 L 220 364 Q 223.8 365.5 223 362.5 L 216 343.5 L 213.5 340 Q 209.5 340.8 210.5 339 Z " /><path fill="rgb(4,52,128)" stroke="rgb(4,52,128)" stroke-width="1" opacity="0.14901960784313725" d="M 249.5 339 L 254 342.5 Q 254.8 344.8 252.5 344 L 249.5 345 Q 248.5 342 243.5 343 L 241 344.5 Q 242 341 247.5 342 L 252 344 L 249.5 339 Z " /><path fill="rgb(4,52,128)" stroke="rgb(4,52,128)" stroke-width="1" opacity="0.14901960784313725" d="M 270 339 L 284.5 339 L 285 342.5 L 284 342.5 L 283.5 340 L 271 340 L 270.5 365 L 270 339 Z " /><path fill="rgb(4,52,128)" stroke="rgb(4,52,128)" stroke-width="1" opacity="0.14901960784313725" d="M 304.5 339 L 312.5 339 L 316 341 L 314.5 345 L 310.5 343 L 306.5 343 L 305 346.5 L 317 353.5 L 318 359.5 L 314.5 364 L 311.5 365 L 311.5 364 L 317 359.5 L 317 356.5 L 314 352 L 304 347.5 Q 302.1 342.1 305.5 343 L 310.5 342 L 315 344 Q 316.1 341.3 313.5 342 L 311.5 340 L 304 340 L 302.5 343 Q 299.8 342.4 301 348.5 L 314 356.5 Q 314.8 361.3 311.5 362 L 306.5 362 L 301 360 L 302.5 363 L 310 365.5 L 307.5 366 L 299 361.5 L 301.5 358 Q 303.8 361.7 310.5 361 L 313 357.5 L 300 348.5 Q 299 342 302.5 340 L 304.5 339 Z " /><path fill="rgb(4,52,128)" stroke="rgb(4,52,128)" stroke-width="1" opacity="0.14901960784313725" d="M 371 339 L 382.5 339 L 388 343.5 L 387.5 349 L 387 344.5 L 385 341 L 382.5 340 L 372 340 L 371.5 365 L 371 339 Z " /><path fill="rgb(4,52,128)" stroke="rgb(4,52,128)" stroke-width="1" opacity="0.14901960784313725" d="M 404 339 L 419.5 339 L 420 342.5 L 419 342.5 L 418.5 340 L 405 340 L 405 363.5 L 406 364.5 L 404 365 L 404 339 Z " /><path fill="rgb(4,52,128)" stroke="rgb(4,52,128)" stroke-width="1" opacity="0.14901960784313725" d="M 439.5 339 Q 449 337 451 342.5 L 449.5 345 L 445.5 343 L 441.5 343 L 438.5 345 L 440.5 342 Q 446.5 341 448.5 344 L 449 341 Q 446.3 339.1 439.5 340 Q 436.3 341.2 437 345 Q 434.3 346.1 435 343.5 L 439.5 339 Z " /><path fill="rgb(4,52,128)" stroke="rgb(4,52,128)" stroke-width="1" opacity="0.14901960784313725" d="M 485.5 339 L 500 339.5 L 485.5 340 L 485.5 339 Z " /><path fill="rgb(4,52,128)" stroke="rgb(4,52,128)" stroke-width="1" opacity="0.14901960784313725" d="M 517.5 339 Q 522.3 338.3 523 341.5 L 533 356.5 L 532 356.5 L 530 353.5 L 529 351 Q 526.3 352.1 527 349.5 L 526 347 L 524 347 Q 525.5 343.2 522.5 344 L 521 340 Q 516.6 341 517.5 339 Z " /><path fill="rgb(4,52,128)" stroke="rgb(4,52,128)" stroke-width="1" opacity="0.14901960784313725" d="M 534 339 L 538 339.5 L 538 365 Q 532.4 366 531 361.5 L 521.5 347 L 521 365 L 517 364.5 L 520 364 L 520 346.5 L 521.5 346 L 534 364 L 537 363.5 L 537 340 L 534.5 341 L 534 339 Z " /><path fill="rgb(4,52,128)" stroke="rgb(4,52,128)" stroke-width="1" opacity="0.14901960784313725" d="M 604 339 L 619.5 339 L 620 342.5 L 619 342.5 L 618.5 340 L 605 340 L 605 364 L 619 364 L 618.5 362 L 608.5 362 L 608 360.5 L 609.5 361 L 620 361 L 620 365 L 604 365 L 604 339 Z " /><path fill="rgb(4,52,128)" stroke="rgb(4,52,128)" stroke-width="1" opacity="0.14901960784313725" d="M 674 339 L 679 339.5 L 679 355.5 L 678 355.5 L 678 340.5 L 675 340 L 674.5 353 L 674 339 Z " /><path fill="rgb(4,52,128)" stroke="rgb(4,52,128)" stroke-width="1" opacity="0.14901960784313725" d="M 691 339 L 696 339.5 L 696 357.5 L 693.5 362 L 693 360.5 L 695 356.5 L 695 340 L 692 340.5 L 692 357.5 L 689.5 361 L 682.5 362 L 679 359.5 L 679.5 357 L 682.5 361 Q 689.8 362.3 691 357.5 L 691 339 Z " /><path fill="rgb(4,52,128)" stroke="rgb(4,52,128)" stroke-width="1" opacity="0.14901960784313725" d="M 711 339 L 723.5 339 L 728 341 L 730 348.5 L 728 353 L 724.5 354 L 724.5 353 L 728 350.5 L 729 346.5 L 726 341 L 723.5 340 L 713 340 L 713 363.5 L 715 364 L 715.5 356 L 716 365 L 711 365 L 711 363.5 L 712 362.5 L 712 341.5 L 711 339 Z " /><path fill="rgb(4,52,128)" stroke="rgb(4,52,128)" stroke-width="1" opacity="0.14901960784313725" d="M 788.5 339 Q 798.3 337.3 801 342.5 Q 801.8 344.8 799.5 344 L 796.5 345 Q 795.5 342 790.5 343 L 789 346.5 L 801 353 L 802 359.5 L 800.5 362 L 800 359.5 L 801 356.5 Q 796.5 349.8 788 348 Q 787 343.3 790.5 342 Q 796.7 341.4 799 344 L 797.5 341 L 788 340 L 786.5 343 Q 783.1 342.1 785 347.5 L 787.5 351 L 795.5 354 L 798 356.5 Q 798.8 360.3 796.5 361 L 790.5 362 L 785 360 L 786.5 363 L 793 365.5 L 791.5 366 L 784 361.5 L 785.5 358 L 788 358 Q 786.9 360.7 789.5 360 L 794.5 361 L 797 357.5 L 784 348.5 Q 783 342 786.5 340 L 788.5 339 Z " /><path fill="rgb(4,52,128)" stroke="rgb(4,52,128)" stroke-width="1" opacity="0.14901960784313725" d="M 137.5 340 L 136.5 342 L 130.5 345 L 131.5 343 L 137.5 340 Z " /><path fill="rgb(4,52,128)" stroke="rgb(4,52,128)" stroke-width="1" opacity="0.14901960784313725" d="M 209 341 L 211 341.5 L 202 364 Q 205.8 365.5 205 362.5 L 207.5 358 L 207 359.5 L 206 365 L 201 365 L 201 362.5 L 209 341 Z " /><path fill="rgb(4,52,128)" stroke="rgb(4,52,128)" stroke-width="1" opacity="0.14901960784313725" d="M 485.5 341 L 486 362.5 L 485 362.5 L 485.5 341 Z " /><path fill="rgb(4,52,128)" stroke="rgb(4,52,128)" stroke-width="1" opacity="0.14901960784313725" d="M 500.5 341 L 501 343 L 499 342.5 L 500.5 341 Z " /><path fill="rgb(4,52,128)" stroke="rgb(4,52,128)" stroke-width="1" opacity="0.14901960784313725" d="M 341.5 342 Q 346 341 347 343.5 L 345.5 343 L 340.5 344 L 341.5 342 Z " /><path fill="rgb(4,52,128)" stroke="rgb(4,52,128)" stroke-width="1" opacity="0.14901960784313725" d="M 608 342 L 610 342.5 L 608 343.5 L 608 342 Z " /><path fill="rgb(4,52,128)" stroke="rgb(4,52,128)" stroke-width="1" opacity="0.14901960784313725" d="M 755.5 342 Q 762.8 341.2 765 345.5 L 767 353.5 L 764.5 358 L 764 356.5 L 766 351.5 L 764 345 Q 761.7 342.4 755.5 343 L 754 343.5 L 755.5 342 Z " /><path fill="rgb(4,52,128)" stroke="rgb(4,52,128)" stroke-width="1" opacity="0.14901960784313725" d="M 375 343 L 381 343.5 L 376 344 L 376 351 L 381.5 351 L 384 349.5 Q 382.1 353.8 375 352 L 375 343 Z " /><path fill="rgb(4,52,128)" stroke="rgb(4,52,128)" stroke-width="1" opacity="0.14901960784313725" d="M 408.5 343 L 409 349.5 L 408 349.5 L 408.5 343 Z " /><path fill="rgb(4,52,128)" stroke="rgb(4,52,128)" stroke-width="1" opacity="0.14901960784313725" d="M 720.5 343 Q 724.3 342.3 725 344.5 L 726 348.5 L 725 351 Q 721.9 353 715 352 L 715.5 344 L 716 351 Q 722.1 352.8 724 349.5 L 725 346.5 L 724 344 Q 719.6 345 720.5 343 Z " /><path fill="rgb(4,52,128)" stroke="rgb(4,52,128)" stroke-width="1" opacity="0.14901960784313725" d="M 274.5 344 L 275 349.5 L 274 349.5 L 274.5 344 Z " /><path fill="rgb(4,52,128)" stroke="rgb(4,52,128)" stroke-width="1" opacity="0.14901960784313725" d="M 338.5 344 L 336.5 347 L 338.5 344 Z " /><path fill="rgb(4,52,128)" stroke="rgb(4,52,128)" stroke-width="1" opacity="0.14901960784313725" d="M 348.5 344 Q 354.1 345.9 353 354.5 L 352 358 L 349 359.5 L 348.5 361 L 348 359.5 Q 352.9 357.9 352 350.5 L 348.5 344 Z " /><path fill="rgb(4,52,128)" stroke="rgb(4,52,128)" stroke-width="1" opacity="0.14901960784313725" d="M 489.5 344 L 490 348.5 L 488 349.5 L 489 347.5 L 488 345.5 L 489.5 344 Z " /><path fill="rgb(4,52,128)" stroke="rgb(4,52,128)" stroke-width="1" opacity="0.14901960784313725" d="M 751.5 344 L 753 344.5 L 750.5 346 L 751.5 344 Z " /><path fill="rgb(4,52,128)" stroke="rgb(4,52,128)" stroke-width="1" opacity="0.14901960784313725" d="M 126.5 345 L 129 345.5 L 118.5 351 L 119.5 349 L 126.5 345 Z " /><path fill="rgb(4,52,128)" stroke="rgb(4,52,128)" stroke-width="1" opacity="0.14901960784313725" d="M 608.5 345 L 610 350.5 L 608 349.5 L 608.5 345 Z " /><path fill="rgb(4,52,128)" stroke="rgb(4,52,128)" stroke-width="1" opacity="0.14901960784313725" d="M 438.5 346 L 451 353.5 L 452 360.5 L 449.5 364 L 442.5 366 L 442.5 365 Q 448.1 365.1 450 361.5 L 451 355.5 Q 447.9 350.1 440.5 349 L 438.5 346 Z " /><path fill="rgb(4,52,128)" stroke="rgb(4,52,128)" stroke-width="1" opacity="0.14901960784313725" d="M 576.5 346 L 589 354.5 L 590 358.5 L 587.5 363 L 579.5 366 L 579.5 365 Q 585.9 364.9 588 360.5 L 589 357.5 L 588 354 L 586 354 Q 587.1 351.3 584.5 352 L 576 347.5 L 576.5 346 Z " /><path fill="rgb(4,52,128)" stroke="rgb(4,52,128)" stroke-width="1" opacity="0.14901960784313725" d="M 15 347 L 17 347.5 L 15 348.5 L 15 347 Z " /><path fill="rgb(4,52,128)" stroke="rgb(4,52,128)" stroke-width="1" opacity="0.14901960784313725" d="M 211.5 347 L 212 349.5 L 209.5 354 L 209 352.5 L 211.5 347 Z " /><path fill="rgb(4,52,128)" stroke="rgb(4,52,128)" stroke-width="1" opacity="0.14901960784313725" d="M 242.5 347 L 254 353.5 L 255 359.5 L 250.5 365 L 245.5 366 L 245.5 365 L 253 361.5 L 254 355.5 Q 250 349.9 242 349 L 242.5 347 Z " /><path fill="rgb(4,52,128)" stroke="rgb(4,52,128)" stroke-width="1" opacity="0.14901960784313725" d="M 435.5 347 Q 440.5 353.5 449 356.5 L 448 358.5 L 448.5 360 Q 446.5 363 440.5 362 L 436 360 Q 434.9 362.7 437.5 362 L 441 364.5 L 439.5 365 L 435 361.5 L 436 358 L 441.5 361 L 445.5 361 Q 447.8 360.3 447 356.5 L 439.5 353 L 435 348.5 L 435.5 347 Z " /><path fill="rgb(4,52,128)" stroke="rgb(4,52,128)" stroke-width="1" opacity="0.14901960784313725" d="M 749 347 L 751 347.5 Q 748.4 348.9 749 353.5 L 751 356.5 L 749 357 L 748 350.5 L 749 347 Z " /><path fill="rgb(4,52,128)" stroke="rgb(4,52,128)" stroke-width="1" opacity="0.14901960784313725" d="M 335.5 349 L 336 350.5 L 335 353.5 L 335.5 355 L 334 351.5 L 335.5 349 Z " /><path fill="rgb(4,52,128)" stroke="rgb(4,52,128)" stroke-width="1" opacity="0.14901960784313725" d="M 417.5 350 L 419 350 L 419 354 L 409 354 L 409 361 L 420 361.5 L 408 362 L 408 353 L 417.5 353 L 418 351.5 L 417.5 350 Z " /><path fill="rgb(4,52,128)" stroke="rgb(4,52,128)" stroke-width="1" opacity="0.14901960784313725" d="M 647 351 L 660 351 L 660 355.5 L 658 356.5 L 659 352 L 648.5 352 L 648 354 L 655 354.5 L 647 355 L 647 351 Z " /><path fill="rgb(4,52,128)" stroke="rgb(4,52,128)" stroke-width="1" opacity="0.14901960784313725" d="M 114.5 352 L 113.5 354 Q 66.7 378.2 33 415.5 L 23.5 427 L 22 427.5 Q 24.5 429 21 430.5 L 13 442.5 L 11 449 L 8 448.5 L 8 412.5 L 10 411.5 Q 11.5 417 9 418.5 L 9 446 Q 11.7 447.1 11 444.5 L 13 439 L 15 438.5 Q 12.5 437 16 435.5 Q 15.3 432.9 18 434 L 18 431.5 L 20 431.5 L 22.5 426 Q 24.8 426.8 24 424.5 L 48.5 398 L 55 394 L 57.5 390 L 63 386.5 Q 62.3 384.3 64.5 385 L 68 382.5 L 67.5 381 L 71.5 380 L 80 374 Q 78.9 371.3 81.5 372 L 86 370 Q 84.8 367 88.5 368 L 114.5 352 Z " /><path fill="rgb(4,52,128)" stroke="rgb(4,52,128)" stroke-width="1" opacity="0.14901960784313725" d="M 283.5 352 L 284 354 L 275 354 L 275 361 L 285 361.5 L 274 362 L 274 353 L 282.5 353 L 283.5 352 Z " /><path fill="rgb(4,52,128)" stroke="rgb(4,52,128)" stroke-width="1" opacity="0.14901960784313725" d="M 356.5 352 L 357 353.5 Q 355.9 360.9 350.5 364 L 346.5 365 L 346.5 364 L 354 358.5 L 356.5 352 Z " /><path fill="rgb(4,52,128)" stroke="rgb(4,52,128)" stroke-width="1" opacity="0.14901960784313725" d="M 385.5 352 L 384.5 354 L 385.5 352 Z " /><path fill="rgb(4,52,128)" stroke="rgb(4,52,128)" stroke-width="1" opacity="0.14901960784313725" d="M 489.5 353 L 499 353.5 L 489.5 354 L 489.5 353 Z " /><path fill="rgb(4,52,128)" stroke="rgb(4,52,128)" stroke-width="1" opacity="0.14901960784313725" d="M 609.5 353 L 619 353.5 L 609.5 354 L 608.5 355 L 609.5 353 Z " /><path fill="rgb(4,52,128)" stroke="rgb(4,52,128)" stroke-width="1" opacity="0.14901960784313725" d="M 769.5 353 L 770 356.5 L 765.5 363 L 760.5 365 L 760.5 364 L 768 358.5 L 769.5 353 Z " /><path fill="rgb(4,52,128)" stroke="rgb(4,52,128)" stroke-width="1" opacity="0.14901960784313725" d="M 375 354 L 380 354 L 380 355.5 L 384 360.5 L 382 361 L 378.5 355 L 376 355 L 376 364.5 L 374.5 365 L 375 363.5 L 375 354 Z " /><path fill="rgb(4,52,128)" stroke="rgb(4,52,128)" stroke-width="1" opacity="0.14901960784313725" d="M 716.5 354 Q 720.3 353.3 721 355.5 L 726.5 364 L 729 363.5 L 724 355.5 L 726 356.5 L 731 363.5 L 731 365.5 L 729.5 365 Q 724.1 366.9 725 363.5 L 720 355 Q 715.6 356 716.5 354 Z " /><path fill="rgb(4,52,128)" stroke="rgb(4,52,128)" stroke-width="1" opacity="0.14901960784313725" d="M 745.5 354 Q 746.6 360.4 751.5 363 L 755 364.5 L 752.5 365 L 747 360.5 Q 744 358 745.5 354 Z " /><path fill="rgb(4,52,128)" stroke="rgb(4,52,128)" stroke-width="1" opacity="0.14901960784313725" d="M 382.5 355 L 385 356.5 L 383.5 357 L 382.5 355 Z " /><path fill="rgb(4,52,128)" stroke="rgb(4,52,128)" stroke-width="1" opacity="0.14901960784313725" d="M 489.5 355 L 490 359.5 L 489 359.5 L 488 356.5 L 489.5 355 Z " /><path fill="rgb(4,52,128)" stroke="rgb(4,52,128)" stroke-width="1" opacity="0.14901960784313725" d="M 335.5 356 L 336.5 358 L 335.5 356 Z " /><path fill="rgb(4,52,128)" stroke="rgb(4,52,128)" stroke-width="1" opacity="0.14901960784313725" d="M 654.5 356 Q 656.8 355.3 656 357.5 Q 654.3 363.8 644.5 362 L 644.5 361 Q 652.8 362.3 655 357.5 L 654.5 356 Z " /><path fill="rgb(4,52,128)" stroke="rgb(4,52,128)" stroke-width="1" opacity="0.14901960784313725" d="M 675.5 357 Q 676 362.5 680.5 364 L 683 364.5 L 680.5 365 L 676 361.5 L 675.5 357 Z " /><path fill="rgb(4,52,128)" stroke="rgb(4,52,128)" stroke-width="1" opacity="0.14901960784313725" d="M 332.5 358 Q 334.8 357.3 334 359.5 Q 336.4 363.6 342 364.5 L 339.5 365 L 334 361.5 L 332.5 358 Z " /><path fill="rgb(4,52,128)" stroke="rgb(4,52,128)" stroke-width="1" opacity="0.14901960784313725" d="M 384.5 358 L 387 359.5 L 385.5 360 L 384.5 358 Z " /><path fill="rgb(4,52,128)" stroke="rgb(4,52,128)" stroke-width="1" opacity="0.14901960784313725" d="M 657 358 L 659 358.5 L 654.5 364 Q 651.6 366.6 645.5 366 Q 639 364.5 636 359.5 L 638 359 L 639.5 362 Q 642.3 365.7 649.5 365 L 657 359.5 L 657 358 Z " /><path fill="rgb(4,52,128)" stroke="rgb(4,52,128)" stroke-width="1" opacity="0.14901960784313725" d="M 750.5 358 Q 752.7 361.7 759.5 361 L 763.5 359 L 763.5 360 Q 761.2 362.7 755.5 362 Q 750.9 360.8 750.5 358 Z " /><path fill="rgb(4,52,128)" stroke="rgb(4,52,128)" stroke-width="1" opacity="0.14901960784313725" d="M 338.5 359 Q 341 362 347 361.5 L 341.5 362 L 338.5 359 Z " /><path fill="rgb(4,52,128)" stroke="rgb(4,52,128)" stroke-width="1" opacity="0.14901960784313725" d="M 640.5 359 L 643 360.5 L 641.5 360 L 640.5 359 Z " /><path fill="rgb(4,52,128)" stroke="rgb(4,52,128)" stroke-width="1" opacity="0.14901960784313725" d="M 386.5 361 Q 388.8 360.3 388 362.5 L 389 365 Q 384.3 366 383 362.5 L 385 362 Q 383.8 365 387.5 364 L 386.5 361 Z " /><path fill="rgb(4,52,128)" stroke="rgb(4,52,128)" stroke-width="1" opacity="0.14901960784313725" d="M 489.5 361 L 501 361 L 501 365 L 485 364.5 L 500 364 L 499.5 362 L 489.5 362 L 489.5 361 Z " /><path fill="rgb(4,52,128)" stroke="rgb(4,52,128)" stroke-width="1" opacity="0.14901960784313725" d="M 690.5 363 L 692 363.5 L 687.5 365 L 687.5 364 L 690.5 363 Z " /><path fill="rgb(4,52,128)" stroke="rgb(4,52,128)" stroke-width="1" opacity="0.14901960784313725" d="M 797.5 363 L 799 363.5 L 794.5 365 L 794.5 364 L 797.5 363 Z " /><path fill="rgb(4,52,128)" stroke="rgb(4,52,128)" stroke-width="1" opacity="0.14901960784313725" d="M 272.5 364 L 285 364.5 L 272.5 365 L 272.5 364 Z " /><path fill="rgb(4,52,128)" stroke="rgb(4,52,128)" stroke-width="1" opacity="0.14901960784313725" d="M 407.5 364 L 420 364.5 L 407.5 365 L 407.5 364 Z " /><path fill="rgb(0,0,0)" stroke="rgb(0,0,0)" stroke-width="1" opacity="0" d="M 0 0 L 881 0 L 881 453 L 0 453 L 0 0 Z M 84 4 L 83 48 L 82 49 L 82 72 L 73 81 L 73 82 L 71 83 L 71 92 L 25 130 L 23 131 L 23 138 L 39 148 L 40 149 L 40 172 L 39 173 L 34 173 L 25 176 Q 20 183 19 193 L 28 197 L 38 209 L 30 244 Q 29 247 32 246 L 38 238 L 67 215 L 89 202 L 116 192 L 146 187 L 143 175 L 139 173 L 132 172 L 130 171 L 130 148 L 142 143 L 147 138 L 147 131 L 103 94 L 100 92 L 100 83 L 89 72 L 87 15 L 86 14 L 86 5 L 84 4 Z M 872 117 L 870 119 L 870 390 L 183 390 L 181 392 L 873 392 L 873 118 L 872 117 Z M 180 171 L 180 301 L 228 301 Q 229 299 234 300 Q 251 295 264 285 Q 277 276 282 259 L 281 257 L 283 255 Q 282 249 284 248 L 284 226 L 283 225 L 283 218 L 282 217 L 282 216 L 281 214 Q 282 210 280 211 L 280 210 L 277 205 Q 278 202 276 203 L 276 202 L 274 199 L 271 197 L 270 194 L 253 179 L 240 174 L 238 174 L 228 171 L 180 171 Z M 484 171 L 482 173 L 482 300 L 484 301 L 500 301 L 501 243 L 502 244 L 550 244 L 550 227 L 500 227 L 500 188 L 559 188 L 559 173 L 558 171 L 556 172 L 553 171 L 548 172 Q 544 169 536 171 L 534 171 L 518 171 L 516 172 L 514 172 L 511 171 L 509 171 L 494 171 L 493 172 L 491 171 L 486 172 L 484 171 Z M 783 198 L 767 202 L 753 211 Q 740 221 736 240 Q 733 269 746 283 Q 757 298 780 302 L 796 302 L 801 301 Q 813 297 822 290 L 832 279 L 836 271 L 839 259 L 839 242 L 838 237 Q 836 225 829 219 Q 820 207 806 201 L 792 198 L 783 198 Z M 301 200 L 301 301 L 361 301 L 361 285 L 317 285 L 317 257 L 353 257 L 353 242 L 317 242 L 317 216 L 361 216 L 361 201 L 361 200 L 301 200 Z M 382 200 L 380 202 L 380 300 L 382 301 L 436 301 L 436 285 L 396 285 L 396 201 L 396 200 L 384 200 L 382 200 Z M 590 200 L 587 204 L 559 277 L 549 299 L 550 301 L 567 301 L 576 279 L 577 276 L 615 276 L 617 280 L 624 300 L 626 301 L 642 301 L 642 298 L 604 202 L 603 200 L 590 200 Z M 654 200 L 654 301 L 671 301 L 671 261 L 672 260 L 683 260 L 705 292 L 708 295 Q 706 296 709 297 Q 712 296 710 300 L 713 301 L 730 301 L 703 262 Q 699 260 702 259 L 700 258 L 710 253 Q 718 247 721 236 L 720 221 L 716 213 Q 710 204 700 201 L 695 200 L 654 200 Z M 125 204 Q 89 216 64 238 Q 41 258 26 285 L 19 307 L 19 315 L 17 322 L 16 339 L 15 340 L 16 349 L 26 334 L 29 332 L 40 318 L 60 299 Q 62 300 61 297 L 85 280 L 133 256 L 135 254 L 132 228 L 128 207 Q 129 202 125 204 Z M 137 272 Q 94 289 65 318 Q 39 340 22 371 L 22 373 L 21 373 L 21 375 L 20 375 L 20 377 L 12 396 L 10 411 L 8 413 L 8 449 L 11 449 L 13 443 L 33 416 Q 80 365 148 337 L 139 279 L 138 278 Q 139 271 137 272 Z M 246 338 L 242 339 Q 236 341 237 349 L 241 352 L 250 357 Q 251 360 249 361 L 244 361 Q 242 357 238 358 L 237 362 L 242 365 L 246 366 L 251 365 L 255 360 L 254 354 L 242 347 L 244 343 Q 249 342 250 345 L 253 344 Q 255 345 254 343 L 251 340 L 249 340 L 246 338 Z M 344 338 L 336 341 L 331 348 Q 329 358 334 362 L 340 365 Q 347 367 351 364 Q 356 361 357 354 L 356 347 L 354 344 L 352 341 L 344 338 Z M 581 338 L 575 340 L 572 344 Q 571 349 573 351 L 583 355 L 585 358 L 583 361 Q 576 362 574 358 L 571 362 L 576 365 L 580 366 L 588 363 L 590 359 L 589 355 Q 586 350 580 349 Q 573 346 579 343 Q 584 342 585 345 L 587 344 Q 590 345 588 341 L 581 338 Z M 647 338 L 641 340 Q 636 343 634 350 Q 633 357 636 360 Q 639 364 646 366 Q 652 367 655 364 Q 660 360 660 351 L 648 351 L 647 355 L 656 356 L 655 356 L 655 358 L 651 361 L 644 361 L 640 359 L 639 356 Q 638 348 641 346 L 645 343 L 650 343 L 656 347 L 657 344 Q 654 339 647 338 Z M 757 338 L 751 340 Q 745 344 744 352 L 747 361 Q 750 365 757 366 L 763 365 L 766 363 L 770 357 Q 771 348 768 344 Q 764 339 757 338 Z M 210 339 L 201 363 L 201 365 L 206 365 L 207 363 L 207 359 L 218 359 L 219 364 Q 220 366 225 365 L 216 341 Q 215 338 210 339 Z M 270 339 L 270 365 L 285 365 L 285 361 L 275 361 L 275 354 L 284 354 L 284 350 L 275 350 L 274 344 L 285 343 L 285 339 L 270 339 Z M 305 339 L 303 340 Q 299 342 300 349 L 313 358 L 311 361 Q 304 362 302 358 L 299 362 L 308 366 L 315 364 L 318 360 L 317 354 L 305 347 L 307 343 L 311 343 L 315 345 L 316 341 L 313 339 L 305 339 Z M 371 339 L 371 365 L 376 365 L 376 356 L 379 355 L 383 363 Q 384 366 389 365 L 383 355 L 385 354 Q 390 352 388 344 L 383 339 L 371 339 Z M 404 339 L 404 365 L 420 365 L 420 361 L 409 361 L 409 354 L 419 354 L 419 350 L 409 350 L 409 343 L 420 343 L 420 339 L 404 339 Z M 440 339 L 435 344 L 435 349 L 440 353 L 447 357 Q 448 360 446 361 L 442 361 L 436 358 L 435 362 L 443 366 L 450 364 L 452 361 L 451 354 L 439 347 L 442 343 L 446 343 L 450 345 L 451 343 Q 449 337 440 339 Z M 485 339 L 485 365 L 501 365 L 501 361 L 490 361 L 490 360 L 489 355 L 499 354 L 499 350 L 490 350 L 490 349 L 489 344 L 501 343 L 500 341 L 500 339 L 485 339 Z M 517 339 L 517 365 L 521 365 L 522 347 L 531 362 Q 532 366 538 365 L 538 340 L 534 339 L 534 357 L 523 342 Q 522 338 517 339 Z M 604 339 L 604 365 L 620 365 L 620 361 L 609 361 L 609 354 L 619 354 L 618 353 L 618 350 L 609 350 L 609 343 L 620 343 L 620 339 L 604 339 Z M 674 339 L 674 353 L 676 362 L 679 364 L 685 366 L 691 364 L 694 362 L 696 358 L 696 339 L 691 340 L 691 358 Q 690 362 683 361 L 679 357 L 679 340 L 674 339 Z M 711 339 L 712 342 L 712 363 L 711 365 L 716 365 L 716 355 L 720 355 L 725 364 Q 724 367 730 365 L 731 366 L 731 364 L 724 355 L 728 353 L 730 349 L 728 341 L 724 339 L 711 339 Z M 789 339 L 787 340 Q 783 342 784 349 L 797 358 L 795 361 L 790 360 Q 787 361 788 358 L 786 358 L 784 362 L 792 366 L 798 364 Q 800 365 799 362 L 801 362 L 802 360 L 801 353 L 789 347 L 791 343 Q 796 342 797 345 L 800 344 Q 802 345 801 343 Q 798 337 789 339 Z " /><path fill="rgb(0,0,0)" stroke="rgb(0,0,0)" stroke-width="1" opacity="0" d="M 199 187 L 224.5 187 Q 225.7 189.3 230.5 188 Q 245.3 192.2 254 202.5 Q 260.5 210 264 220.5 L 266 229.5 L 266 241.5 L 264 251.5 L 260 261.5 L 247.5 276 L 237.5 281 L 225.5 284 L 199 284 L 199 187 Z " /><path fill="rgb(0,0,0)" stroke="rgb(0,0,0)" stroke-width="1" opacity="0" d="M 780.5 214 Q 790.8 212.7 797.5 215 Q 806.9 218.1 813 224.5 L 820 236.5 L 822 252.5 L 819 266.5 L 808.5 280 Q 800.2 287.2 784.5 287 L 772.5 284 L 760 275.5 L 756 269.5 L 756.5 268 L 755 267.5 L 755 265.5 L 753 257.5 L 753 242.5 L 755 236.5 L 754.5 235 Q 756.8 235.8 756 233.5 L 757 230.5 L 765.5 221 L 780.5 214 Z " /><path fill="rgb(0,0,0)" stroke="rgb(0,0,0)" stroke-width="1" opacity="0" d="M 671 215 L 691.5 215 Q 699.1 216.9 703 222.5 L 704 234.5 L 699.5 242 Q 688.9 248.1 671 246 L 671 215 Z " /><path fill="rgb(0,0,0)" stroke="rgb(0,0,0)" stroke-width="1" opacity="0" d="M 595 223 Q 598 221.8 597 225.5 L 605 250.5 L 610 261.5 L 582 262 L 595 223 Z " /><path fill="rgb(0,0,0)" stroke="rgb(0,0,0)" stroke-width="1" opacity="0" d="M 341.5 343 Q 349.4 342.1 351 347.5 L 352 354.5 L 346.5 361 Q 339.6 361.7 337 359 L 335 355.5 L 335 353.5 L 336 349.5 L 335 348.5 L 339.5 344 L 341.5 343 Z " /><path fill="rgb(0,0,0)" stroke="rgb(0,0,0)" stroke-width="1" opacity="0" d="M 716 343 L 724 344 L 725 347.5 L 722.5 351 L 716 351 L 716 343 Z " /><path fill="rgb(0,0,0)" stroke="rgb(0,0,0)" stroke-width="1" opacity="0" d="M 755.5 343 Q 761.7 342.4 764 345 L 766 352.5 L 764 359 Q 761.7 361.6 755.5 361 L 750 357.5 L 750 355.5 L 749 350.5 L 751 347.5 Q 748.8 346.3 751.5 345 L 755.5 343 Z " /><path fill="rgb(0,0,0)" stroke="rgb(0,0,0)" stroke-width="1" opacity="0" d="M 376 344 L 382.5 344 L 384 345.5 Q 384.8 350.3 381.5 351 L 376 351 L 376 344 Z " /><path fill="rgb(0,0,0)" stroke="rgb(0,0,0)" stroke-width="1" opacity="0" d="M 212.5 346 L 216 354.5 L 209.5 355 L 210 353.5 L 212.5 346 Z " /><path fill="rgb(25,94,158)" stroke="rgb(25,94,158)" stroke-width="1" opacity="0.8823529411764706" d="M 85.5 5 L 86 22.5 L 87 23.5 L 86 25.5 L 87 26.5 L 87 43.5 L 88 44.5 L 88 70.5 L 89 74 L 96 79.5 Q 100.7 82.3 99 91.5 L 103.5 96 L 146 131.5 Q 147.5 138.5 143.5 140 L 130 147 L 129 149.5 L 129 165.5 L 130 168.5 L 130 170.5 Q 129.2 173.1 132.5 172 L 143 176 L 145 187 L 120.5 190 L 90.5 200 L 63.5 216 L 38 237 L 31.5 245 L 32 243.5 L 32 238.5 L 39 207.5 Q 32.1 197 20 193 L 23 180.5 L 25.5 177 L 41 173 L 41 148.5 L 39.5 147 Q 29.9 144.1 24 137.5 Q 22.5 129.5 27.5 128 L 71 92.5 L 71 84.5 L 83 71.5 L 83 48.5 L 84 47.5 L 84 24.5 L 85 23.5 L 85.5 5 Z " /><path fill="rgb(25,94,158)" stroke="rgb(25,94,158)" stroke-width="1" opacity="0.8823529411764706" d="M 871 118 L 873 118.5 L 873 392 L 183 391.5 L 872 391 L 871 388.5 L 871 361.5 L 871 359.5 L 871 338.5 L 872 336.5 L 871 333.5 L 871 331.5 L 871 321.5 L 872 320.5 L 871 315.5 L 872 313.5 L 871 312.5 L 871 274.5 L 872 272.5 L 871 268.5 L 871 266.5 Q 869.4 256.4 872 250.5 L 871 249.5 L 871 236.5 L 871 234.5 Q 869.8 229.7 872 228.5 L 871 225.5 L 871 223.5 L 872 221.5 L 871 218.5 L 871 196.5 L 872 194.5 L 871 192.5 L 871 190.5 L 872 185.5 L 872 183.5 L 871 178.5 L 871 176.5 L 871 148.5 L 872 146.5 L 871 143.5 L 872 141.5 L 871 140.5 L 871 118 Z " /><path fill="rgb(25,94,158)" stroke="rgb(25,94,158)" stroke-width="1" opacity="0.8823529411764706" d="M 221.5 171 L 229.5 173 Q 231 170.5 232.5 174 L 237.5 175 L 239 174.5 Q 238.2 177.1 241.5 176 L 244 176.5 L 244.5 178 L 246 177.5 L 246.5 179 L 248.5 179 L 254 181 L 254 183 L 257 183 Q 255.8 186 259.5 185 L 269.5 196 Q 271.8 195.3 271 197.5 L 272 200 L 274 200 L 274 203 Q 276.7 201.9 276 204.5 L 279 209.5 L 279 211.5 Q 277.9 214.8 280.5 214 L 280 215.5 L 281 220.5 L 283 222.5 L 282 225.5 L 284 230.5 L 283 231.5 L 283 241.5 L 284 244.5 L 282 249.5 Q 284.5 251 281 252.5 L 282 254.5 L 279 259.5 L 279 261.5 Q 273.3 277.3 260.5 286 Q 247.9 296.4 228.5 300 L 181 300 L 181 173.5 L 182.5 172 L 220.5 172 L 221.5 171 Z M 223 186 L 222 187 L 198 188 L 199 189 L 199 285 L 227 285 Q 240 283 249 276 L 259 265 L 262 257 L 265 252 L 264 251 L 266 248 L 265 246 L 267 241 L 266 228 L 266 226 L 260 211 Q 261 207 258 208 L 258 205 L 256 205 L 253 199 L 250 197 Q 247 198 248 195 L 245 195 L 245 193 L 238 190 L 234 188 L 233 189 L 231 188 L 229 188 L 223 186 Z " /><path fill="rgb(25,94,158)" stroke="rgb(25,94,158)" stroke-width="1" opacity="0.8823529411764706" d="M 482.5 172 L 557.5 172 L 558 172.5 L 558 187 L 549.5 187 L 548.5 188 L 547.5 187 L 527.5 187 L 525.5 187 L 500.5 187 L 499 188.5 L 499.5 229 L 501.5 229 L 548.5 229 L 550 230.5 L 549 233.5 L 549 242.5 L 548.5 243 L 499 243 L 499 299.5 L 498.5 300 L 483 300 L 483 173.5 L 482.5 172 Z " /><path fill="rgb(25,94,158)" stroke="rgb(25,94,158)" stroke-width="1" opacity="0.8823529411764706" d="M 780.5 199 L 794.5 199 L 802.5 201 Q 815.5 205.5 824 214.5 Q 832.6 223.4 837 236.5 L 838 240.5 L 838 259.5 L 834 272.5 Q 828.4 282.9 819.5 290 Q 811.7 296.7 800.5 300 L 796.5 301 L 777.5 301 Q 757 295.5 746 280.5 Q 741.6 276.4 741 270 L 739 269.5 L 740 268.5 L 738 264.5 L 736 255.5 L 736 245.5 L 741 229.5 L 740.5 228 L 742 227.5 L 741.5 226 Q 743.8 226.8 743 224.5 L 754.5 211 Q 764.1 201.6 780.5 199 Z M 781 213 L 767 219 Q 755 226 752 242 L 752 259 Q 754 270 761 278 L 775 286 L 784 288 L 797 287 L 808 282 L 818 271 L 822 261 L 822 253 L 823 252 L 821 237 L 815 226 Q 809 219 801 215 Q 793 212 781 213 Z " /><path fill="rgb(25,94,158)" stroke="rgb(25,94,158)" stroke-width="1" opacity="0.8823529411764706" d="M 303.5 201 L 359.5 201 L 360 201.5 L 360 215 L 317 215 L 317 243 L 352 243 L 352 256 L 317 256 L 317 286 L 359.5 286 L 360 286.5 L 360 300 L 302 300 L 302 202.5 L 303.5 201 Z " /><path fill="rgb(25,94,158)" stroke="rgb(25,94,158)" stroke-width="1" opacity="0.8823529411764706" d="M 381 201 L 394.5 201 L 395 201.5 L 395 286 L 434.5 286 L 435 286.5 L 435 298.5 L 433.5 300 L 381 300 L 381 201 Z " /><path fill="rgb(25,94,158)" stroke="rgb(25,94,158)" stroke-width="1" opacity="0.8823529411764706" d="M 589 201 L 602.5 201 L 603 203.5 L 606 212 L 608 212.5 L 608 214.5 Q 606.9 217.8 609.5 217 L 610 219.5 Q 608.9 222.8 611.5 222 L 612 224.5 L 613 230 L 615 230.5 L 615 232.5 L 615 235 L 617 235.5 L 617 239.5 L 620 243.5 L 620 246.5 L 641 300 L 625.5 300 L 625 298.5 L 615.5 274 L 614.5 275 L 577.5 275 L 576 274.5 L 568 296.5 L 565.5 300 L 552.5 300 L 551 298.5 L 578 231.5 L 578 228.5 L 581 223.5 L 580.5 222 Q 583.1 222.8 582 219.5 L 585 213.5 Q 582.5 212 586 210.5 L 587 208.5 L 586.5 207 Q 589.1 207.8 588 204.5 L 589 201 Z M 596 219 L 581 261 L 582 263 L 611 263 L 596 219 Z " /><path fill="rgb(25,94,158)" stroke="rgb(25,94,158)" stroke-width="1" opacity="0.8823529411764706" d="M 655 201 L 695.5 201 Q 709.3 204.3 716 214.5 L 720 222.5 L 720 224.5 Q 721.4 235.4 718 241.5 L 710.5 251 L 700 256 L 699 258.5 L 702.5 263 L 704 263.5 L 703 264.5 L 706 267.5 L 707.5 270 L 709 270.5 Q 706.5 272 710 273.5 L 710.5 275 L 712 274.5 L 712 276.5 L 712.5 278 L 714 277.5 Q 711.5 279 715 280.5 L 721.5 291 L 723 290.5 Q 720.5 292 724 293.5 Q 723.3 296.1 726 295 L 726 297.5 L 727.5 300 L 713.5 300 L 710 297.5 Q 712.8 295.8 708.5 294 L 707 293.5 Q 709.5 292 706 290.5 L 703.5 287 L 702 286.5 Q 704.5 285 701 283.5 L 688.5 265 L 687 265.5 Q 689.5 264 686 262.5 L 683.5 259 L 670 259 L 670 300 L 656.5 300 L 655 298.5 L 655 201 Z M 671 214 L 671 216 L 670 219 Q 673 220 671 226 L 670 229 L 671 233 L 670 235 Q 669 240 671 242 L 670 247 L 687 247 Q 688 245 694 246 L 700 243 L 705 235 Q 706 226 703 222 Q 699 216 693 214 L 671 214 Z " /><path fill="rgb(25,94,158)" stroke="rgb(25,94,158)" stroke-width="1" opacity="0.8823529411764706" d="M 127.5 204 L 135 252.5 L 132.5 255 L 88.5 277 L 65 293 Q 66.1 295.7 63.5 295 L 60 297 Q 61.1 299.7 58.5 299 L 53 303.5 Q 53.8 305.8 51.5 305 L 44 311 L 38 320 L 35 321.5 L 31.5 327 Q 29.3 326.3 30 328.5 L 28 332 Q 25.3 330.9 26 333.5 L 23.5 337 Q 20.9 336.2 22 339.5 L 19 341.5 Q 21.7 343.3 17.5 345 L 16 344.5 L 16 332.5 L 17 331.5 L 18 317.5 L 20 314.5 L 19 311.5 Q 22.5 310 20 308.5 L 26 287.5 Q 33.5 271.5 44.5 259 Q 46.8 259.8 46 257.5 L 61.5 241 Q 76.3 226.5 96 218 Q 94.9 215.3 97.5 216 Q 110.9 208.4 127.5 204 Z " /><path fill="rgb(25,94,158)" stroke="rgb(25,94,158)" stroke-width="1" opacity="0.8823529411764706" d="M 135.5 274 Q 138.1 273.2 137 276.5 L 138 277.5 L 139 289.5 L 143 307.5 L 143 313.5 L 147 335.5 L 145.5 338 L 143.5 338 L 139 339 L 138.5 341 L 136.5 341 L 129.5 345 L 124.5 346 L 88.5 368 L 86 368 Q 87.1 370.7 84.5 370 L 80 372 Q 81.1 374.7 78.5 374 Q 74.8 379.8 67 381.5 L 67.5 383 L 63 385 L 61.5 388 L 55 392.5 Q 55.8 394.8 53.5 394 L 37 409.5 L 24 426 L 22 426.5 L 22.5 428 L 21 427.5 L 19.5 432 L 18 431.5 L 18 434 Q 15.3 432.9 16 435.5 Q 12.9 437.3 14.5 439 Q 12.3 438.3 13 440.5 L 11 446 L 9 445.5 L 9 418.5 L 10 417.5 L 12 399.5 Q 16.2 383.7 24 371.5 L 25 366 Q 27.7 367.1 27 364.5 L 30 360.5 L 30 358 L 32 358 L 32 355 Q 34.7 356.1 34 353.5 L 35 351 Q 37.7 352.1 37 349.5 L 38 347 L 41 345.5 Q 52.7 328.7 68.5 316 L 87 302 Q 85.8 299 89.5 300 Q 93 295 99 294 L 99 292 Q 103.1 293.3 102 290 L 105.5 290 L 108.5 287 L 135.5 274 Z " /><path fill="rgb(25,94,158)" stroke="rgb(25,94,158)" stroke-width="1" opacity="0.8823529411764706" d="M 210.5 340 Q 214.3 339.3 215 341.5 L 223 364 Q 218.9 365.7 220 361.5 L 217.5 358 L 208.5 359 Q 207.3 356.8 206 359.5 L 205 364 Q 201.2 365.5 202 362.5 L 211 341.5 L 210.5 340 Z M 213 345 L 209 353 L 209 356 L 215 355 L 216 356 L 213 345 Z " /><path fill="rgb(25,94,158)" stroke="rgb(25,94,158)" stroke-width="1" opacity="0.8823529411764706" d="M 242.5 340 Q 250.2 338.2 252 342.5 Q 252.8 344.8 250.5 344 Q 248.8 341.2 243.5 342 Q 239.2 343.8 242 345.5 Q 240.3 350.3 244.5 349 L 254 355.5 Q 254.8 361.3 251.5 363 L 244.5 365 L 238 361.5 L 240.5 360 Q 242.5 363 248.5 362 Q 251.8 361.3 251 356.5 L 248.5 354 L 239 350 L 238 345.5 L 240.5 341 L 242.5 340 Z " /><path fill="rgb(25,94,158)" stroke="rgb(25,94,158)" stroke-width="1" opacity="0.8823529411764706" d="M 271 340 L 283.5 340 L 284 343 L 274 343 L 274 350 L 282.5 350 L 284 351.5 L 282.5 353 L 274 353 L 274 362 L 284.5 362 L 285 364 L 272.5 364 L 271.5 365 L 271 340 Z " /><path fill="rgb(25,94,158)" stroke="rgb(25,94,158)" stroke-width="1" opacity="0.8823529411764706" d="M 304 340 L 311.5 340 L 315 342 Q 316.1 344.7 313.5 344 Q 311.8 341.2 306.5 342 L 304 343 Q 302.8 347.6 305.5 349 L 314 352 L 317 356.5 L 317 359.5 Q 314.8 364.8 307.5 365 L 301 361.5 Q 300.2 358.9 303.5 360 Q 305.5 363 311.5 362 Q 314.8 361.3 314 356.5 L 301 348.5 Q 299.8 342.4 302.5 343 L 304 340 Z " /><path fill="rgb(25,94,158)" stroke="rgb(25,94,158)" stroke-width="1" opacity="0.8823529411764706" d="M 339.5 340 Q 347 339 350 341 L 350 343 L 352 343 L 352 345 Q 354.7 343.9 354 346.5 L 356 353.5 Q 354.5 360 349.5 363 L 342.5 365 Q 336.8 363.8 334 359.5 Q 334.8 357.3 332.5 358 L 332 355.5 L 332 348.5 L 337.5 341 L 339.5 340 Z M 342 342 L 339 344 L 334 352 L 335 357 L 342 362 Q 348 363 347 361 L 349 361 L 349 360 L 352 358 L 353 355 L 352 348 L 346 342 L 342 342 Z " /><path fill="rgb(25,94,158)" stroke="rgb(25,94,158)" stroke-width="1" opacity="0.8823529411764706" d="M 372 340 L 382.5 340 L 385 341 L 388 349.5 L 386 350.5 L 386.5 352 L 382 355.5 L 385 357.5 Q 382.8 358.8 385.5 360 L 387 360.5 L 386 361.5 L 387.5 364 L 385 364 Q 386.1 361.3 383.5 362 Q 385.1 360.3 382 358.5 L 380 354 L 375 354 L 375 363.5 L 372 365 L 372 340 Z M 375 343 L 375 352 L 382 352 L 385 348 L 383 344 L 382 344 L 375 343 Z " /><path fill="rgb(25,94,158)" stroke="rgb(25,94,158)" stroke-width="1" opacity="0.8823529411764706" d="M 405 340 L 418.5 340 L 419 343 L 408 343 L 408 350 L 416.5 350 L 418 351.5 L 417.5 353 L 408 353 L 408 362 L 419.5 362 L 420 364 L 407.5 364 L 406.5 365 L 405 363.5 L 405 340 Z " /><path fill="rgb(25,94,158)" stroke="rgb(25,94,158)" stroke-width="1" opacity="0.8823529411764706" d="M 439.5 340 Q 446.3 339.1 449 341 L 448.5 344 Q 446.5 341 440.5 342 L 438 344.5 L 438 346.5 L 440.5 349 Q 447.9 350.1 451 355.5 Q 451.9 362.4 447.5 364 L 441.5 365 L 436 362 Q 434.9 359.3 437.5 360 Q 439.5 363 445.5 362 L 449 359.5 L 448 357.5 Q 450.3 356.3 447.5 355 Q 439.1 352.9 435 346.5 Q 434.3 343.9 437 345 L 437 342.5 L 439.5 340 Z " /><path fill="rgb(25,94,158)" stroke="rgb(25,94,158)" stroke-width="1" opacity="0.8823529411764706" d="M 485.5 340 L 499.5 340 L 500 341.5 L 498.5 343 L 489 343 L 488 346.5 L 489 348.5 L 488.5 350 L 497.5 350 L 498 351.5 L 498.5 353 L 489.5 353 L 489 355.5 L 488 357.5 L 489 362 L 499.5 362 L 500 364 L 485 363.5 L 486 362.5 L 486 341.5 L 485.5 340 Z " /><path fill="rgb(25,94,158)" stroke="rgb(25,94,158)" stroke-width="1" opacity="0.8823529411764706" d="M 517 340 Q 522.2 337.9 521 342.5 L 524 344 L 524 347 Q 526.7 345.9 526 348.5 L 527 351 Q 529.7 349.9 529 352.5 L 530 355 Q 533 354 532 357 L 535 357 L 534 354.5 L 534 341.5 L 537 340 L 537 363.5 L 534 364 L 521.5 346 L 520 346.5 L 520 363.5 L 517 364 L 517 340 Z " /><path fill="rgb(25,94,158)" stroke="rgb(25,94,158)" stroke-width="1" opacity="0.8823529411764706" d="M 576 340 Q 582.9 339 586 341 L 585.5 344 Q 583.8 341.2 578.5 342 L 576 343 Q 574.8 347.6 577.5 349 L 586 352 Q 585 355 588 354 L 588 356.5 L 588 358.5 Q 588.5 363.5 584.5 364 L 578.5 365 L 573 361.5 Q 572.2 358.9 575.5 360 Q 576.8 363.3 582.5 362 L 585 361 L 586 357.5 L 585 355 L 575.5 351 L 573 348.5 L 573 344.5 L 576 340 Z " /><path fill="rgb(25,94,158)" stroke="rgb(25,94,158)" stroke-width="1" opacity="0.8823529411764706" d="M 605 340 L 618.5 340 L 619 343 Q 611.4 344.1 608 342 L 609 344.5 L 608 349.5 Q 609.3 352.3 610.5 350 Q 617.5 348.5 617 351.5 L 617.5 353 L 609.5 353 L 608 354.5 L 609 359.5 L 608 362 L 618.5 362 L 619 364 L 605 364 L 605 340 Z " /><path fill="rgb(25,94,158)" stroke="rgb(25,94,158)" stroke-width="1" opacity="0.8823529411764706" d="M 643.5 340 Q 653.3 338.3 656 343.5 Q 656.8 345.8 654.5 345 Q 652 340.5 643.5 342 L 639 345.5 L 638 355.5 L 640 360 Q 643.3 363 651.5 362 L 656 357.5 L 656 355.5 L 654.5 354 L 648 354 L 648.5 352 L 659 352 L 658 356.5 L 658.5 358 Q 656.3 357.3 657 359.5 L 649.5 365 L 645.5 365 L 638 360.5 Q 638.7 357.9 636 359 L 636 356.5 Q 633.5 355 635 349.5 L 636 346 Q 638.7 347.1 638 344.5 L 643.5 340 Z " /><path fill="rgb(25,94,158)" stroke="rgb(25,94,158)" stroke-width="1" opacity="0.8823529411764706" d="M 675 340 L 678 340.5 L 678 355.5 L 680.5 361 L 687.5 362 L 691 359.5 L 692 357.5 L 692 340 L 695 340.5 L 695 356.5 L 691.5 363 L 683.5 365 L 676 359.5 L 675 356.5 L 675 340 Z " /><path fill="rgb(25,94,158)" stroke="rgb(25,94,158)" stroke-width="1" opacity="0.8823529411764706" d="M 713 340 L 723.5 340 L 726 341 L 729 348.5 L 725.5 353 Q 722.5 352.1 724 356.5 L 729 363.5 L 726.5 364 L 719.5 354 Q 715.1 352.5 716 355.5 L 715 356.5 L 715 364 L 713 363.5 L 713 340 Z M 717 343 L 715 345 L 715 352 Q 722 353 725 351 L 726 349 L 725 345 Q 723 341 717 343 Z " /><path fill="rgb(25,94,158)" stroke="rgb(25,94,158)" stroke-width="1" opacity="0.8823529411764706" d="M 753.5 340 Q 763.3 338.3 766 343.5 Q 769.7 346.3 770 352.5 Q 768.9 359.9 763.5 363 Q 761.2 365.7 755.5 365 L 747 358.5 L 745 350.5 L 748 345.5 L 747.5 344 L 749 344.5 Q 747.9 341.2 750.5 342 L 753.5 340 Z M 756 342 L 752 344 L 748 351 Q 747 356 750 359 L 756 362 Q 762 363 764 360 L 767 354 L 765 346 Q 763 341 756 342 Z " /><path fill="rgb(25,94,158)" stroke="rgb(25,94,158)" stroke-width="1" opacity="0.8823529411764706" d="M 788 340 Q 796 338.3 799 342.5 Q 799.8 344.8 797.5 344 Q 795.8 341.2 790.5 342 Q 787 343.3 788 348 Q 796.5 349.8 801 356.5 L 798.5 363 L 791.5 365 L 785 361.5 Q 784.2 358.9 787.5 360 Q 789.2 362.8 794.5 362 L 798 359.5 Q 798.8 354.8 795.5 354 L 786 349.5 L 785 343 L 788 341.5 L 788 340 Z " /></svg>